<svg xmlns="http://www.w3.org/2000/svg" version="1.1" xmlns:xlink="http://www.w3.org/1999/xlink" xmlns:svgjs="http://svgjs.dev/svgjs" width="100%" height="100%" viewBox="0 0 1000 600"><rect width="1000" height="600" x="0" y="0" fill="#eb2188"/><g><circle r="166.66666666666666" cx="464.7081095377604" cy="486.9304238773741" fill="#080a52" transform="matrix(0.4194046430630533,0,0,0.4194046430630533,0,95.77911342926991)"/><path d="M426.9297322099692 561.912173339234Q424.2684206647234 562.1263018543686 422.18831508912905 559.8320677636395Q420.10820951353463 557.5072438850341 420.10820951353463 554.8765221276647L420.10820951353463 554.8765221276647L420.10820951353463 418.75196607773785Q420.10820951353463 416.1212443203685 422.18831508912905 414.0105489568977Q424.2684206647234 411.93044338130335 427.1438607251039 411.93044338130335L427.1438607251039 411.93044338130335Q430.0193007854844 411.93044338130335 432.09940636107876 414.0105489568977Q434.1795119366732 416.1212443203685 434.1795119366732 418.75196607773785L434.1795119366732 418.75196607773785L434.1795119366732 547.5961526130843L502.2417899616366 542.9770946437498Q505.3313585371518 542.7629661286151 507.319694749117 544.7513023405802Q509.30803096108224 546.7090487646691 509.30803096108224 549.7986173401843L509.30803096108224 549.7986173401843Q509.30803096108224 552.45992888543 507.319694749117 554.4176753095189Q505.3313585371518 556.4060115214841 502.7006367797824 556.6201400366189L502.7006367797824 556.6201400366189L426.9297322099692 561.912173339234Z " fill="#eb2188" transform="matrix(0.4194046430630533,0,0,0.4194046430630533,0,95.77911342926991)"/><path d="M721.3834349862516 560.1942725591464Q718.7791642150485 560.4038115867144 716.7436422329588 558.1587505770566Q714.7081202508691 555.8837554206034 714.7081202508691 553.3094187961958L714.7081202508691 553.3094187961958L714.7081202508691 420.10246555650053Q714.7081202508691 417.52812893209295 716.7436422329588 415.4626728032078Q718.7791642150485 413.42715082111806 721.5929740138197 413.42715082111806L721.5929740138197 413.42715082111806Q724.4067838125907 413.42715082111806 726.4423057946805 415.4626728032078Q728.4778277767703 417.52812893209295 728.4778277767703 420.10246555650053L728.4778277767703 420.10246555650053L728.4778277767703 546.1850918588817L795.0813043966177 541.6650356927707Q798.104653222957 541.4554966652026 800.0503727646603 543.4012162069062Q801.9960923063638 545.3170016018141 801.9960923063638 548.3403504281532L801.9960923063638 548.3403504281532Q801.9960923063638 550.9446211993562 800.0503727646603 552.8604065942642Q798.104653222957 554.8061261359676 795.5303165985493 555.0156651635357L795.5303165985493 555.0156651635357L721.3834349862516 560.1942725591464ZM864.4985908152365 560.1942725591464Q848.7532296008366 560.1942725591464 836.4802294147074 553.1896822090141Q824.1772950817827 546.1850918588817 817.5019803464003 534.3311697278887Q810.8266656110178 522.4772475968955 810.8266656110178 508.46806689663094L810.8266656110178 508.46806689663094Q810.8266656110178 493.8302691136622 816.9631657040824 480.9885201384197Q823.0996657971469 468.1767053099726 834.0854976710724 460.42376128995437Q845.1012636917932 452.6408831231407 859.3199834196258 452.6408831231407L859.3199834196258 452.6408831231407Q872.2515348352548 452.6408831231407 881.4113837546585 457.60995149118327Q890.5712326740623 462.5790198592258 895.2110254273551 469.4638736221764Q899.8208840338524 476.34872738512695 899.8208840338524 481.73687380830563L899.8208840338524 481.73687380830563Q899.8208840338524 485.6283128917124 894.672210785037 488.65166171805157L894.672210785037 488.65166171805157L827.8591951376214 526.7877647354385Q833.2473415608002 537.1449795266598 842.4969929205903 542.4133893626566Q851.7765784271757 547.711733345449 864.2591176408731 547.711733345449L864.2591176408731 547.711733345449Q871.173905550619 547.711733345449 878.8071129834556 544.2393723171783Q886.4702545630875 540.796945435703 890.9903107291983 536.067350242024L890.9903107291983 536.067350242024Q892.5169522157656 533.9120916727525 895.3008278677413 533.9120916727525L895.3008278677413 533.9120916727525Q898.1146376665125 533.9120916727525 899.9406206210341 535.7380746272742Q901.7666035755557 537.5640575817959 901.7666035755557 540.377867380567L901.7666035755557 540.377867380567Q901.7666035755557 542.5331259498384 900.0603572082158 544.6883845191098L900.0603572082158 544.6883845191098Q894.2231985831055 551.3636992544923 884.1952594066341 555.793952980217Q874.1972543769581 560.1942725591464 864.4985908152365 560.1942725591464L864.4985908152365 560.1942725591464ZM886.4702545630875 480.03062744096565Q883.4469057367481 472.69676147608357 876.9811300289338 469.04479556704024Q870.5153543211194 465.3628955112015 859.5295224471939 465.3628955112015L859.5295224471939 465.3628955112015Q849.1723076559728 465.3628955112015 841.0002855808183 471.08031754913Q832.7983293588685 476.79773958705846 828.1585366055759 486.49640314878013Q823.5486779990784 496.19506671050175 823.309204824715 507.83944981392676L823.309204824715 507.83944981392676Q823.309204824715 512.1499669524698 823.7582170266465 514.7243035768773L823.7582170266465 514.7243035768773L886.4702545630875 480.03062744096565ZM932.598774774856 560.1942725591464Q929.7849649760848 560.1942725591464 927.7494429939951 558.2485530174429Q925.6839868651099 556.3327676225349 925.6839868651099 553.9380358789L925.6839868651099 553.9380358789L925.6839868651099 458.89711980338706Q925.6839868651099 456.1132441514114 927.7494429939951 454.2573270500943Q929.7849649760848 452.4313440955726 932.598774774856 452.4313440955726L932.598774774856 452.4313440955726Q935.3826504268317 452.4313440955726 937.328369968535 454.2573270500943Q939.2740895102385 456.1132441514114 939.2740895102385 458.89711980338706L939.2740895102385 458.89711980338706L939.2740895102385 492.9621788565945Q945.5303261904847 473.5648517331513 956.6358946515919 463.1178345015437Q967.7115289659038 452.6408831231407 981.7207096661683 452.6408831231407L981.7207096661683 452.6408831231407Q993.5746317971615 452.6408831231407 1000.4894197069074 458.687580775819Q1007.3742734698579 464.7342784284973 1010.397622296197 477.75563228451244Q1013.4209711225363 490.80692028732307 1013.4209711225363 512.7785840351739L1013.4209711225363 512.7785840351739Q1013.4209711225363 534.3311697278887 1013.2114320949682 541.0064844632711L1013.2114320949682 541.0064844632711L1013.2114320949682 553.3094187961958Q1013.2114320949682 556.0932944481715 1011.3555149936511 558.1587505770566Q1009.5295320391293 560.1942725591464 1006.7456563871539 560.1942725591464L1006.7456563871539 560.1942725591464Q1004.1413856159508 560.1942725591464 1002.1956660742472 558.1587505770566Q1000.2798806793393 556.0932944481715 1000.2798806793393 553.5189578237638L1000.2798806793393 553.5189578237638L1000.2798806793393 541.4554966652026Q1000.0404075049759 534.7801819298202 1000.0404075049759 513.6466742922416L1000.0404075049759 513.6466742922416Q1000.0404075049759 493.5907959392987 998.0048855228862 483.2635152948729Q995.9693635407965 472.90630050365166 991.7486488426397 469.1345980074266Q987.5578682912786 465.3628955112015 979.8049242712603 465.3628955112015L979.8049242712603 465.3628955112015Q972.4710583063783 465.3628955112015 965.3467313690643 470.75104193438017Q958.2523385785456 476.13918835755885 952.864192155367 486.0473909468485L952.864192155367 486.0473909468485Q945.7398652180528 498.97894236247737 942.6267139513274 510.41378643833434Q939.4836285378066 521.8486305141914 939.2740895102385 533.9120916727525L939.2740895102385 533.9120916727525L939.0645504826704 553.0998797686277Q939.0645504826704 556.0932944481715 937.2385675281488 558.1587505770566Q935.3826504268317 560.1942725591464 932.598774774856 560.1942725591464L932.598774774856 560.1942725591464ZM1115.7957531629313 561.9304530732817Q1112.562865309024 561.9304530732817 1110.826684794889 559.8649969443966Q1109.1204384275488 557.8294749623068 1109.1204384275488 554.8061261359676L1109.1204384275488 554.8061261359676L1109.1204384275488 548.7893626300847Q1103.2832798024383 553.9380358789 1095.1112577272843 557.0811212924209Q1086.9093015053345 560.1942725591464 1078.7073452833847 560.1942725591464L1078.7073452833847 560.1942725591464Q1067.0928963267552 560.1942725591464 1057.8133108201696 554.3870480808315Q1048.533725313584 548.5498894557213 1043.2653154775871 537.8933331965457Q1037.9969056415903 527.23677693737 1037.9969056415903 513.6466742922416L1037.9969056415903 513.6466742922416Q1037.9969056415903 498.97894236247737 1044.1334057346548 484.8799592218265Q1050.2699058277194 470.75104193438017 1062.0040913715306 461.71092960215816Q1073.7682110621377 452.6408831231407 1089.7231113041057 452.6408831231407L1089.7231113041057 452.6408831231407Q1099.6313138933951 452.6408831231407 1107.1747188858453 455.24515389434373Q1114.7181238782955 457.8194905187513 1122.4710678983138 461.5013905745901L1122.4710678983138 461.5013905745901L1122.4710678983138 554.8061261359676Q1122.4710678983138 557.8294749623068 1120.5253483566103 559.8649969443966Q1118.5796288149068 561.9304530732817 1115.7957531629313 561.9304530732817L1115.7957531629313 561.9304530732817ZM1078.7073452833847 547.4722601710855Q1087.1188405329026 547.4722601710855 1095.5303357824205 543.4910186472924Q1103.941831031938 539.5097771234992 1108.4618871980492 534.9897209573883L1108.4618871980492 534.9897209573883L1109.329977455117 469.6734126497444Q1105.8875505736414 468.1767053099726 1100.3796675632811 466.76980041058704Q1094.8717845529209 465.3628955112015 1090.1421893592415 465.3628955112015L1090.1421893592415 465.3628955112015Q1079.5754355404524 465.3628955112015 1070.7448622357983 471.6191321914479Q1061.9142889311443 477.8753688716942 1056.8554181227155 488.7414641584379Q1051.7666131674914 499.637493591977 1051.7666131674914 513.2275962371054L1051.7666131674914 513.2275962371054Q1051.7666131674914 528.94302330471 1059.3100181599416 538.2226088112955Q1066.8534231523913 547.4722601710855 1078.7073452833847 547.4722601710855L1078.7073452833847 547.4722601710855ZM1160.6071709157004 454.167524609708Q1157.823295263725 454.167524609708 1155.8775757220214 452.2218050680046Q1153.9318561803184 450.2760855263012 1153.9318561803184 447.25273669996204L1153.9318561803184 447.25273669996204L1153.9318561803184 418.81529724429674Q1153.9318561803184 416.00148744552564 1155.8775757220214 414.08570205061767Q1157.823295263725 412.1399825089143 1160.6071709157004 412.1399825089143L1160.6071709157004 412.1399825089143Q1163.4209807144716 412.1399825089143 1165.3667002561751 414.08570205061767Q1167.3124197978786 416.00148744552564 1167.3124197978786 418.81529724429674L1167.3124197978786 418.81529724429674L1167.3124197978786 447.25273669996204Q1167.3124197978786 450.0665464987331 1165.3667002561751 452.1020684808228Q1163.4209807144716 454.167524609708 1160.6071709157004 454.167524609708L1160.6071709157004 454.167524609708ZM1225.9234792233442 560.6432847610779Q1213.650479037215 560.6432847610779 1204.7001691453793 555.5544798058536Q1195.749859253544 550.4956089974247 1191.110066500251 543.7005576748604Q1186.4702737469584 536.9354404990917 1186.4702737469584 532.1759111586172L1186.4702737469584 532.1759111586172Q1186.4702737469584 529.3920355066415 1188.3261908482755 527.5361184053244Q1190.1521738027973 525.7101354508027 1192.9360494547727 525.7101354508027L1192.9360494547727 525.7101354508027Q1197.6955787952475 525.7101354508027 1198.982747107451 530.2301916169138L1198.982747107451 530.2301916169138Q1202.0060959337902 538.8512258939996 1209.100488724309 543.6107552344741Q1216.2248156616229 548.3403504281532 1226.5820304528438 548.3403504281532L1226.5820304528438 548.3403504281532Q1236.90931109727 548.3403504281532 1243.5846258326524 542.7426649774064Q1250.2898747148301 537.1449795266598 1250.2898747148301 529.3920355066415L1250.2898747148301 529.3920355066415Q1250.2898747148301 524.8420451937351 1248.224418585945 521.7288939270096Q1246.1888966038555 518.6157426602841 1240.8905526210629 515.801932861513Q1235.622142785066 512.9881230627419 1225.5044011682085 509.99470838319826L1225.5044011682085 509.99470838319826Q1208.022859439673 504.6065619600196 1200.2699154196548 497.48223502270554Q1192.5169713996365 490.3579080853915 1192.5169713996365 478.74345912876186L1192.5169713996365 478.74345912876186Q1192.5169713996365 467.09907602533684 1202.0958983741766 459.8849466476365Q1211.704759495512 452.6408831231407 1229.5754451323878 452.6408831231407L1229.5754451323878 452.6408831231407Q1245.739884401924 452.6408831231407 1254.4806552661917 459.22639541813686Q1263.221426130459 465.81190771313305 1263.221426130459 477.2168176421946L1263.221426130459 477.2168176421946Q1263.221426130459 482.39542503780524 1261.485245616324 485.0894982493945Q1259.7490651021885 487.7835714609839 1256.516177248281 487.7835714609839L1256.516177248281 487.7835714609839Q1253.7323015963057 487.7835714609839 1251.7865820546021 485.95758850646223Q1249.8408625128986 484.13160555194054 1249.8408625128986 481.73687380830563L1249.8408625128986 481.73687380830563Q1249.8408625128986 480.6592445236698 1250.1701381276484 479.37207621146604Q1250.4994137423982 478.08490789926225 1250.4994137423982 477.00727861462656L1250.4994137423982 477.00727861462656Q1250.4994137423982 471.20005413631173 1245.3208063467878 467.8474296952228Q1240.1421989511769 464.4948052541338 1229.5754451323878 464.4948052541338L1229.5754451323878 464.4948052541338Q1217.9609961757583 464.4948052541338 1211.5850229083298 468.26650775035887Q1205.2389837876972 472.03821024658396 1205.2389837876972 478.95299815632995L1205.2389837876972 478.95299815632995Q1205.2389837876972 485.6283128917124 1210.7169326512626 489.5197519751192Q1216.2248156616229 493.38125691173065 1229.8149183067512 497.9013130778417L1229.8149183067512 497.9013130778417Q1242.74646972238 502.2118302163846 1249.7510600725122 506.1032692997914Q1256.7556504226445 509.99470838319826 1259.8688016893702 515.2631182191951Q1262.9819529560955 520.5315280551921 1262.9819529560955 528.7334842771419L1262.9819529560955 528.7334842771419Q1262.9819529560955 536.6959673247281 1258.3720943495982 544.0298332896102Q1253.7323015963057 551.3636992544923 1245.3208063467878 556.0034920077851Q1236.90931109727 560.6432847610779 1225.9234792233442 560.6432847610779L1225.9234792233442 560.6432847610779ZM1367.9610057676937 560.1942725591464Q1365.1471959689225 560.1942725591464 1363.111673986833 558.1587505770566Q1361.0462178579478 556.0932944481715 1361.0462178579478 553.3094187961958L1361.0462178579478 553.3094187961958L1361.0462178579478 422.70673632770354Q1361.0462178579478 418.6057582167287 1362.0340447021972 416.77977526220707Q1362.9919373996513 414.92385816088995 1366.6738374554898 414.08570205061767Q1370.325803364533 413.21761179354996 1378.7372986140508 413.21761179354996L1378.7372986140508 413.21761179354996Q1419.0286602007095 413.21761179354996 1439.0845385536522 424.62252172261157Q1459.1104827597997 436.05736579846854 1459.1104827597997 457.60995149118327L1459.1104827597997 457.60995149118327Q1459.1104827597997 476.13918835755885 1445.3407752338985 487.66383487380216Q1431.541133561202 499.2184155368409 1412.143806437759 504.157549758088Q1392.7464793143158 509.1266181261306 1374.8458595306442 509.33615715369865L1374.8458595306442 509.33615715369865L1374.8458595306442 553.3094187961958Q1374.8458595306442 556.0932944481715 1372.9001399889407 558.1587505770566Q1370.9843545940325 560.1942725591464 1367.9610057676937 560.1942725591464L1367.9610057676937 560.1942725591464ZM1374.8458595306442 495.7460545085702Q1387.777410946273 495.5365154810021 1403.9418502158092 492.3036276270949Q1420.1062894853453 489.0707397731877 1432.828301873406 480.56944208328355Q1445.5503142614666 472.03821024658396 1445.5503142614666 457.60995149118327L1445.5503142614666 457.60995149118327Q1445.5503142614666 442.732680533851 1429.1763359643624 434.77019748626475Q1412.7724235204632 426.777780291883 1382.3892645230944 426.777780291883L1382.3892645230944 426.777780291883Q1376.5820400447797 426.777780291883 1374.8458595306442 427.01725346624653L1374.8458595306442 427.01725346624653L1374.8458595306442 495.7460545085702ZM1508.4718908254754 560.1942725591464Q1496.1988906393462 560.1942725591464 1486.1709514628747 553.6386944109456Q1476.1430122864035 547.0531821159494 1470.4255902484747 535.7380746272742Q1464.738102357342 524.422967138599 1464.738102357342 510.62332546590244L1464.738102357342 510.62332546590244Q1464.738102357342 495.98552768293365 1471.2936805055429 482.6049640653733Q1477.879192800539 469.2543345946083 1489.5235759039638 460.9625759322722Q1501.1380248605933 452.6408831231407 1515.1472055608579 452.6408831231407L1515.1472055608579 452.6408831231407Q1527.2406008662147 452.6408831231407 1537.2386058958905 459.22639541813686Q1547.266545072362 465.81190771313305 1552.9839671102905 477.12701520180826Q1558.7013891482188 488.44212269048353 1558.7013891482188 502.0022911888165L1558.7013891482188 502.0022911888165Q1558.7013891482188 517.5381133756484 1551.786601238473 530.8887428464134Q1544.9017474755224 544.2393723171783 1533.3771009592792 552.23178951156Q1521.852454443036 560.1942725591464 1508.4718908254754 560.1942725591464L1508.4718908254754 560.1942725591464ZM1509.339981082543 547.9212723730171Q1518.6195665891287 547.9212723730171 1526.7915886642832 541.6650356927707Q1534.993544886233 535.4087990125244 1539.93267910748 525.0815183680986Q1544.9017474755224 514.7243035768773 1544.9017474755224 503.07992047345226L1544.9017474755224 503.07992047345226Q1544.9017474755224 492.9621788565945 1540.8007693645477 484.2214079923269Q1536.6997912535726 475.51057127485467 1529.6952009034403 470.2122272920623Q1522.690610553308 464.94381745606535 1514.069576276222 464.94381745606535L1514.069576276222 464.94381745606535Q1504.6103858888641 464.94381745606535 1496.528166254096 471.289856576698Q1488.445946619328 477.66582984412616 1483.5966148384673 488.1128470757337Q1478.7472830576066 498.5598643073413 1478.7472830576066 510.20424741076636L1478.7472830576066 510.20424741076636Q1478.7472830576066 521.3996183122598 1482.9380636089677 529.9308501489594Q1487.1288441603288 538.4321478388636 1494.2531710976427 543.1617430325426Q1501.3774980349567 547.9212723730171 1509.339981082543 547.9212723730171L1509.339981082543 547.9212723730171ZM1592.5269750270631 560.1942725591464Q1589.9526384026553 560.1942725591464 1587.7973798333837 558.2485530174429Q1585.6421212641126 556.3327676225349 1585.6421212641126 553.9380358789L1585.6421212641126 553.9380358789L1585.6421212641126 459.1066588309551Q1585.6421212641126 456.3227831789795 1587.677643246202 454.4968002244578Q1589.7430993750872 452.6408831231407 1592.5269750270631 452.6408831231407L1592.5269750270631 452.6408831231407Q1595.550323853402 452.6408831231407 1597.4960433951055 454.4968002244578Q1599.441762936809 456.3227831789795 1599.441762936809 459.1066588309551L1599.441762936809 459.1066588309551L1599.441762936809 477.42635666976264Q1605.458526442692 466.8895369977688 1614.4088363345277 459.43593444570496Q1623.359146226363 452.01226604043654 1635.4226073849245 452.01226604043654L1635.4226073849245 452.01226604043654Q1644.9117319190782 452.01226604043654 1649.1025124704393 457.28067587643346Q1653.3232271685956 462.5790198592258 1653.3232271685956 469.8829516773125L1653.3232271685956 469.8829516773125L1653.3232271685956 476.79773958705846Q1653.3232271685956 479.58161523903414 1651.3775076268926 481.43753234035125Q1649.431788085189 483.2635152948729 1646.6179782864178 483.2635152948729L1646.6179782864178 483.2635152948729Q1643.3850904325109 483.2635152948729 1641.8883830927389 481.31779575316943Q1640.3916757529669 479.37207621146604 1640.3916757529669 476.5882005594904L1640.3916757529669 476.5882005594904L1640.3916757529669 471.6191321914479Q1640.3916757529669 465.3628955112015 1633.0578097880848 465.3628955112015L1633.0578097880848 465.3628955112015Q1620.3357974000241 465.3628955112015 1606.7456947548958 483.47305432244093L1606.7456947548958 483.47305432244093Q1603.5128069009884 487.7835714609839 1601.477284918899 494.2493471687983Q1599.441762936809 500.7151228766127 1599.441762936809 506.31280832735945L1599.441762936809 506.31280832735945L1599.2022897624456 553.9380358789Q1599.2022897624456 556.3327676225349 1597.1667677803557 558.2485530174429Q1595.1312457982663 560.1942725591464 1592.5269750270631 560.1942725591464L1592.5269750270631 560.1942725591464ZM1683.4968471383963 560.4038115867144Q1680.6830373396251 560.4038115867144 1678.6475153575357 558.4880261918064Q1676.5820592286505 556.542306650103 1676.5820592286505 553.9380358789L1676.5820592286505 553.9380358789L1676.5820592286505 466.0214467407011L1652.664675939096 466.0214467407011Q1649.8508661403253 466.0214467407011 1647.935080745417 463.95599061181593Q1645.9893612037135 461.9204686297262 1645.9893612037135 459.1066588309551L1645.9893612037135 459.1066588309551Q1645.9893612037135 456.1132441514114 1648.1446197729852 454.2573270500943Q1650.2998783422568 452.4313440955726 1653.0837539942322 452.4313440955726L1653.0837539942322 452.4313440955726L1676.5820592286505 452.4313440955726L1676.5820592286505 422.91627535527164Q1676.5820592286505 420.10246555650053 1678.6475153575357 418.06694357441086Q1680.6830373396251 416.00148744552564 1683.4968471383963 416.00148744552564L1683.4968471383963 416.00148744552564Q1686.4902618179403 416.00148744552564 1688.3461789192575 418.06694357441086Q1690.1721618737788 420.10246555650053 1690.1721618737788 422.91627535527164L1690.1721618737788 422.91627535527164L1690.1721618737788 452.4313440955726L1714.2990841909013 452.4313440955726Q1717.3224330172402 452.4313440955726 1719.2681525589437 454.377063637276Q1721.2138721006472 456.3227831789795 1721.2138721006472 459.1066588309551L1721.2138721006472 459.1066588309551Q1721.2138721006472 461.9204686297262 1719.148415971762 463.95599061181593Q1717.1128939896726 466.0214467407011 1714.2990841909013 466.0214467407011L1714.2990841909013 466.0214467407011L1690.1721618737788 466.0214467407011L1690.1721618737788 553.9380358789Q1690.1721618737788 556.542306650103 1688.106705744894 558.4880261918064Q1686.0711837628041 560.4038115867144 1683.4968471383963 560.4038115867144L1683.4968471383963 560.4038115867144ZM1741.4493553343627 560.1942725591464Q1738.6654796823868 560.1942725591464 1736.600023553502 558.2485530174429Q1734.5645015714122 556.3327676225349 1734.5645015714122 553.9380358789L1734.5645015714122 553.9380358789L1734.5645015714122 464.94381745606535L1719.4776915865118 464.94381745606535Q1717.1128939896726 464.94381745606535 1715.167174447969 462.99809791436195Q1713.2214549062655 461.05237837265855 1713.2214549062655 458.478041748251L1713.2214549062655 458.478041748251Q1713.2214549062655 456.1132441514114 1715.0474378607873 454.167524609708Q1716.903354962104 452.2218050680046 1719.0586135313756 452.2218050680046L1719.0586135313756 452.2218050680046L1734.7740405989803 452.2218050680046Q1734.7740405989803 437.1349950831043 1739.2940967650911 428.3044217784503Q1743.8440870779973 419.47384847379635 1753.2134750249697 415.70214597757126Q1762.5828629719413 411.9304434813462 1778.0887510119778 411.9304434813462L1778.0887510119778 411.9304434813462Q1787.1587974909953 411.9304434813462 1787.1587974909953 418.15674601479714L1787.1587974909953 418.15674601479714Q1787.1587974909953 420.97055581356824 1785.42261697686 422.91627535527164Q1783.7163706095198 424.86199489697503 1780.6930217831805 424.86199489697503L1780.6930217831805 424.86199489697503Q1767.3124581656202 424.86199489697503 1760.7568800174195 426.777780291883Q1754.1713677224234 428.7234998335864 1751.2677554832662 434.44092187151494Q1748.3641432441086 440.15834390944343 1748.1546042165405 452.2218050680046L1748.1546042165405 452.2218050680046L1776.5920436722058 452.4313440955726Q1778.7473022414774 452.4313440955726 1780.7828242235669 454.2573270500943Q1782.848280352452 456.1132441514114 1782.848280352452 458.478041748251L1782.848280352452 458.478041748251Q1782.848280352452 461.05237837265855 1781.0222973979307 462.99809791436195Q1779.1663802966132 464.94381745606535 1776.5920436722058 464.94381745606535L1776.5920436722058 464.94381745606535L1748.1546042165405 464.94381745606535L1748.1546042165405 553.9380358789Q1748.1546042165405 556.3327676225349 1746.0891480876553 558.2485530174429Q1744.0536261055659 560.1942725591464 1741.4493553343627 560.1942725591464L1741.4493553343627 560.1942725591464ZM1825.9534517378816 560.1942725591464Q1813.650517404957 560.1942725591464 1803.6525123752808 553.6386944109456Q1793.6245731988097 547.0531821159494 1787.9071511608813 535.7380746272742Q1782.1897291229525 524.422967138599 1782.1897291229525 510.62332546590244L1782.1897291229525 510.62332546590244Q1782.1897291229525 495.98552768293365 1788.775241417949 482.6049640653733Q1795.3308195661493 469.2543345946083 1806.9752026695746 460.9625759322722Q1818.6195857729995 452.6408831231407 1832.628766473264 452.6408831231407L1832.628766473264 452.6408831231407Q1844.6922276318255 452.6408831231407 1854.7201668082967 459.22639541813686Q1864.7481059847682 465.81190771313305 1870.4655280226966 477.12701520180826Q1876.1530159138297 488.44212269048353 1876.1530159138297 502.0022911888165L1876.1530159138297 502.0022911888165Q1876.1530159138297 517.5381133756484 1869.268162150879 530.8887428464134Q1862.3833083879285 544.2393723171783 1850.8287277248896 552.23178951156Q1839.304081208647 560.1942725591464 1825.9534517378816 560.1942725591464L1825.9534517378816 560.1942725591464ZM1826.8215419949493 547.9212723730171Q1836.0711933547395 547.9212723730171 1844.2731495766893 541.6650356927707Q1852.4451716518433 535.4087990125244 1857.4142400198862 525.0815183680986Q1862.3833083879285 514.7243035768773 1862.3833083879285 503.07992047345226L1862.3833083879285 503.07992047345226Q1862.3833083879285 492.9621788565945 1858.2823302769539 484.2214079923269Q1854.1813521659788 475.51057127485467 1847.1767618158465 470.2122272920623Q1840.1721714657142 464.94381745606535 1831.5511371886282 464.94381745606535L1831.5511371886282 464.94381745606535Q1822.062012654475 464.94381745606535 1813.979793019707 471.289856576698Q1805.8975733849388 477.66582984412616 1801.0482416040782 488.1128470757337Q1796.198909823217 498.5598643073413 1796.198909823217 510.20424741076636L1796.198909823217 510.20424741076636Q1796.198909823217 521.3996183122598 1800.4196245213739 529.9308501489594Q1804.610405072735 538.4321478388636 1811.734732010049 543.1617430325426Q1818.8291248005676 547.9212723730171 1826.8215419949493 547.9212723730171L1826.8215419949493 547.9212723730171ZM1910.0085359394693 560.1942725591464Q1907.4042651682662 560.1942725591464 1905.2490065989946 558.3682896046247Q1903.093748029723 556.542306650103 1903.093748029723 554.1775090532635L1903.093748029723 554.1775090532635L1903.093748029723 418.6057582167287Q1903.093748029723 415.7919484179576 1905.0394675714265 413.9659654634359Q1906.98518711313 412.1399825089143 1910.0085359394693 412.1399825089143L1910.0085359394693 412.1399825089143Q1912.5828725638767 412.1399825089143 1914.6483286927619 414.08570205061767Q1916.6838506748518 416.00148744552564 1916.6838506748518 418.6057582167287L1916.6838506748518 418.6057582167287L1916.6838506748518 554.1775090532635Q1916.6838506748518 556.542306650103 1914.6483286927619 558.3682896046247Q1912.5828725638767 560.1942725591464 1910.0085359394693 560.1942725591464L1910.0085359394693 560.1942725591464ZM1958.7113927756454 435.6382877433324Q1955.8975829768742 435.6382877433324 1953.9817975819665 433.692568201629Q1952.0360780402625 431.7468486599256 1952.0360780402625 428.9330388611545L1952.0360780402625 428.9330388611545L1952.245617067831 420.10246555650053Q1952.245617067831 417.52812893209295 1954.4008756371022 415.58240939038956Q1956.5561342063738 413.6366898486861 1959.1304708307812 413.6366898486861L1959.1304708307812 413.6366898486861Q1961.7347416019843 413.6366898486861 1963.6804611436878 415.70214597757126Q1965.596246538596 417.73766795966105 1965.596246538596 420.31200458406863L1965.596246538596 420.31200458406863L1965.386707511028 429.17251203551797Q1965.386707511028 431.95638768749365 1963.351185528938 433.7823706420153Q1961.2857294000532 435.6382877433324 1958.7113927756454 435.6382877433324L1958.7113927756454 435.6382877433324ZM1957.4242244634415 560.1942725591464Q1954.6104146646703 560.1942725591464 1952.4551560953992 558.1587505770566Q1950.2998975261276 556.0932944481715 1950.2998975261276 553.3094187961958L1950.2998975261276 553.3094187961958L1951.587065838331 459.76521006045476Q1951.587065838331 456.95140026168366 1953.7423244076026 454.79614169241216Q1955.8975829768742 452.6408831231407 1958.7113927756454 452.6408831231407L1958.7113927756454 452.6408831231407Q1961.5252025744167 452.6408831231407 1963.560724556506 454.7063392520258Q1965.596246538596 456.74186123411556 1965.596246538596 459.76521006045476L1965.596246538596 459.76521006045476L1964.309078226392 553.3094187961958Q1964.309078226392 556.0932944481715 1962.2735562443027 558.1587505770566Q1960.2081001154174 560.1942725591464 1957.4242244634415 560.1942725591464L1957.4242244634415 560.1942725591464ZM2036.0911622418503 560.1942725591464Q2023.7882279089258 560.1942725591464 2013.7902228792495 553.6386944109456Q2003.7622837027784 547.0531821159494 1998.0448616648496 535.7380746272742Q1992.3274396269212 524.422967138599 1992.3274396269212 510.62332546590244L1992.3274396269212 510.62332546590244Q1992.3274396269212 495.98552768293365 1998.9129519219177 482.6049640653733Q2005.468530070118 469.2543345946083 2017.1129131735433 460.9625759322722Q2028.7572962769682 452.6408831231407 2042.7664769772327 452.6408831231407L2042.7664769772327 452.6408831231407Q2054.829938135794 452.6408831231407 2064.8578773122654 459.22639541813686Q2074.885816488737 465.81190771313305 2080.6032385266653 477.12701520180826Q2086.2907264177984 488.44212269048353 2086.2907264177984 502.0022911888165L2086.2907264177984 502.0022911888165Q2086.2907264177984 517.5381133756484 2079.405872654848 530.8887428464134Q2072.5210188918973 544.2393723171783 2060.966438228859 552.23178951156Q2049.441791712615 560.1942725591464 2036.0911622418503 560.1942725591464L2036.0911622418503 560.1942725591464ZM2036.959252498918 547.9212723730171Q2046.2089038587083 547.9212723730171 2054.4108600806576 541.6650356927707Q2062.582882155812 535.4087990125244 2067.551950523855 525.0815183680986Q2072.5210188918973 514.7243035768773 2072.5210188918973 503.07992047345226L2072.5210188918973 503.07992047345226Q2072.5210188918973 492.9621788565945 2068.4200407809226 484.2214079923269Q2064.3190626699475 475.51057127485467 2057.314472319815 470.2122272920623Q2050.309881969683 464.94381745606535 2041.688847692597 464.94381745606535L2041.688847692597 464.94381745606535Q2032.1997231584437 464.94381745606535 2024.1175035236756 471.289856576698Q2016.035283888907 477.66582984412616 2011.1859521080464 488.1128470757337Q2006.3366203271858 498.5598643073413 2006.3366203271858 510.20424741076636L2006.3366203271858 510.20424741076636Q2006.3366203271858 521.3996183122598 2010.5573350253426 529.9308501489594Q2014.7481155767036 538.4321478388636 2021.8724425140176 543.1617430325426Q2028.9668353045363 547.9212723730171 2036.959252498918 547.9212723730171L2036.959252498918 547.9212723730171Z " fill="#080a52" transform="matrix(0.4194046430630533,0,0,0.4194046430630533,0,95.77911342926991)"/></g></svg>